<mxfile host="app.diagrams.net" agent="Mozilla/5.0 (Windows NT 10.0; Win64; x64) AppleWebKit/537.36 (KHTML, like Gecko) Chrome/134.0.0.0 Safari/537.36" version="26.2.9">
  <diagram name="Page-1" id="_YwwSENNY2EO35tvZcfI">
    <mxGraphModel grid="1" page="1" gridSize="10" guides="1" tooltips="1" connect="1" arrows="1" fold="1" pageScale="1" pageWidth="850" pageHeight="1100" math="0" shadow="0">
      <root>
        <mxCell id="0" />
        <mxCell id="1" parent="0" />
        <mxCell id="1_qBArGU98DS_A4FDtYi-1" value="Guest" style="whiteSpace=wrap;html=1;aspect=fixed;" vertex="1" parent="1">
          <mxGeometry x="160" y="280" width="80" height="80" as="geometry" />
        </mxCell>
        <mxCell id="1_qBArGU98DS_A4FDtYi-2" value="Staff" style="whiteSpace=wrap;html=1;aspect=fixed;" vertex="1" parent="1">
          <mxGeometry x="640" y="280" width="80" height="80" as="geometry" />
        </mxCell>
        <mxCell id="1_qBArGU98DS_A4FDtYi-3" value="Admin" style="whiteSpace=wrap;html=1;aspect=fixed;" vertex="1" parent="1">
          <mxGeometry x="400" y="40" width="80" height="80" as="geometry" />
        </mxCell>
        <mxCell id="1_qBArGU98DS_A4FDtYi-4" value="&lt;div&gt;&lt;br&gt;&lt;/div&gt;Winterson&lt;br&gt;Management System&lt;div&gt;&lt;br/&gt;&lt;/div&gt;" style="ellipse;whiteSpace=wrap;html=1;aspect=fixed;" vertex="1" parent="1">
          <mxGeometry x="390" y="260" width="100" height="100" as="geometry" />
        </mxCell>
        <mxCell id="1_qBArGU98DS_A4FDtYi-6" value="Booking Request" style="endArrow=classic;html=1;rounded=0;exitX=1;exitY=0;exitDx=0;exitDy=0;labelBackgroundColor=default;labelBorderColor=none;fontSize=8;" edge="1" parent="1" source="1_qBArGU98DS_A4FDtYi-1">
          <mxGeometry width="50" height="50" relative="1" as="geometry">
            <mxPoint x="243" y="292" as="sourcePoint" />
            <mxPoint x="400" y="280" as="targetPoint" />
            <Array as="points">
              <mxPoint x="270" y="280" />
            </Array>
          </mxGeometry>
        </mxCell>
        <mxCell id="1_qBArGU98DS_A4FDtYi-8" value="&#xa;Service Orders &#xa;&#xa;" style="endArrow=classic;rounded=0;exitX=1;exitY=0.25;exitDx=0;exitDy=0;fontSize=8;" edge="1" parent="1" source="1_qBArGU98DS_A4FDtYi-1">
          <mxGeometry y="-10" width="50" height="50" relative="1" as="geometry">
            <mxPoint x="240" y="320" as="sourcePoint" />
            <mxPoint x="390" y="300" as="targetPoint" />
            <Array as="points" />
            <mxPoint as="offset" />
          </mxGeometry>
        </mxCell>
        <mxCell id="1_qBArGU98DS_A4FDtYi-9" value="&#xa;Voucher Details" style="endArrow=classic;rounded=0;entryX=-0.013;entryY=0.6;entryDx=0;entryDy=0;entryPerimeter=0;fontSize=8;" edge="1" parent="1" target="1_qBArGU98DS_A4FDtYi-4">
          <mxGeometry x="-0.0657" width="50" height="50" relative="1" as="geometry">
            <mxPoint x="241" y="320" as="sourcePoint" />
            <mxPoint x="400" y="310" as="targetPoint" />
            <Array as="points" />
            <mxPoint as="offset" />
          </mxGeometry>
        </mxCell>
        <mxCell id="1_qBArGU98DS_A4FDtYi-10" value="Booking Confirmation" style="endArrow=classic;rounded=0;fontSize=8;entryX=1;entryY=0.75;entryDx=0;entryDy=0;" edge="1" parent="1" target="1_qBArGU98DS_A4FDtYi-1">
          <mxGeometry x="0.0004" y="1" width="50" height="50" relative="1" as="geometry">
            <mxPoint x="400" y="337" as="sourcePoint" />
            <mxPoint x="250" y="400" as="targetPoint" />
            <mxPoint y="1" as="offset" />
          </mxGeometry>
        </mxCell>
        <mxCell id="1_qBArGU98DS_A4FDtYi-15" value="Service Bill" style="endArrow=classic;rounded=0;fontSize=8;entryX=1;entryY=0.75;entryDx=0;entryDy=0;" edge="1" parent="1">
          <mxGeometry x="-0.0585" y="2" width="50" height="50" relative="1" as="geometry">
            <mxPoint x="410" y="353" as="sourcePoint" />
            <mxPoint x="240" y="353" as="targetPoint" />
            <mxPoint as="offset" />
          </mxGeometry>
        </mxCell>
        <mxCell id="1_qBArGU98DS_A4FDtYi-16" value="Check-in/Check-out&#xa; Logs" style="endArrow=classic;rounded=0;fontSize=8;exitX=0.187;exitY=0.927;exitDx=0;exitDy=0;exitPerimeter=0;entryX=0.96;entryY=0.213;entryDx=0;entryDy=0;entryPerimeter=0;" edge="1" parent="1" target="1_qBArGU98DS_A4FDtYi-4">
          <mxGeometry x="-0.0056" width="50" height="50" relative="1" as="geometry">
            <mxPoint x="649" y="280" as="sourcePoint" />
            <mxPoint x="470" y="280" as="targetPoint" />
            <mxPoint as="offset" />
          </mxGeometry>
        </mxCell>
        <mxCell id="1_qBArGU98DS_A4FDtYi-17" value="Service Status Updates" style="endArrow=classic;rounded=0;fontSize=8;entryX=1.027;entryY=0.387;entryDx=0;entryDy=0;entryPerimeter=0;" edge="1" parent="1" target="1_qBArGU98DS_A4FDtYi-4">
          <mxGeometry x="-0.0585" y="2" width="50" height="50" relative="1" as="geometry">
            <mxPoint x="640" y="300" as="sourcePoint" />
            <mxPoint x="500" y="300" as="targetPoint" />
            <mxPoint as="offset" />
          </mxGeometry>
        </mxCell>
        <mxCell id="1_qBArGU98DS_A4FDtYi-18" value="Room Cleaning Updates" style="endArrow=classic;rounded=0;fontSize=8;entryX=1.027;entryY=0.593;entryDx=0;entryDy=0;entryPerimeter=0;" edge="1" parent="1" target="1_qBArGU98DS_A4FDtYi-4">
          <mxGeometry width="50" height="50" relative="1" as="geometry">
            <mxPoint x="640" y="319.5" as="sourcePoint" />
            <mxPoint x="500" y="319.5" as="targetPoint" />
            <mxPoint as="offset" />
          </mxGeometry>
        </mxCell>
        <mxCell id="1_qBArGU98DS_A4FDtYi-20" value="&#xa;Room Assignments&#xa;" style="endArrow=classic;rounded=0;fontSize=8;exitX=0.953;exitY=0.7;exitDx=0;exitDy=0;exitPerimeter=0;" edge="1" parent="1" source="1_qBArGU98DS_A4FDtYi-4">
          <mxGeometry x="0.0542" y="-1" width="50" height="50" relative="1" as="geometry">
            <mxPoint x="500" y="330" as="sourcePoint" />
            <mxPoint x="640" y="332" as="targetPoint" />
            <Array as="points" />
            <mxPoint as="offset" />
          </mxGeometry>
        </mxCell>
        <mxCell id="1_qBArGU98DS_A4FDtYi-22" value="" style="endArrow=classic;rounded=0;fontSize=8;exitX=0.6;exitY=1;exitDx=0;exitDy=0;exitPerimeter=0;entryX=-0.017;entryY=0.875;entryDx=0;entryDy=0;entryPerimeter=0;" edge="1" parent="1" source="1_qBArGU98DS_A4FDtYi-4">
          <mxGeometry y="-40" width="50" height="50" relative="1" as="geometry">
            <mxPoint x="491.36" y="360" as="sourcePoint" />
            <mxPoint x="650.0000000000001" y="360" as="targetPoint" />
            <Array as="points">
              <mxPoint x="520" y="360" />
              <mxPoint x="580" y="360" />
            </Array>
            <mxPoint as="offset" />
          </mxGeometry>
        </mxCell>
        <mxCell id="1_qBArGU98DS_A4FDtYi-33" value="Guest info" style="edgeLabel;html=1;align=center;verticalAlign=middle;resizable=0;points=[];fontSize=8;" connectable="0" vertex="1" parent="1_qBArGU98DS_A4FDtYi-22">
          <mxGeometry x="0.2" y="2" relative="1" as="geometry">
            <mxPoint x="-10" y="2" as="offset" />
          </mxGeometry>
        </mxCell>
        <mxCell id="1_qBArGU98DS_A4FDtYi-23" value="" style="endArrow=classic;html=1;rounded=0;exitX=0.28;exitY=0.047;exitDx=0;exitDy=0;exitPerimeter=0;entryX=0.25;entryY=1;entryDx=0;entryDy=0;" edge="1" parent="1" source="1_qBArGU98DS_A4FDtYi-4" target="1_qBArGU98DS_A4FDtYi-3">
          <mxGeometry x="1" y="180" width="50" height="50" relative="1" as="geometry">
            <mxPoint x="390" y="240" as="sourcePoint" />
            <mxPoint x="420" y="120" as="targetPoint" />
            <mxPoint y="-7" as="offset" />
          </mxGeometry>
        </mxCell>
        <mxCell id="1_qBArGU98DS_A4FDtYi-26" value="User Management" style="edgeLabel;html=1;align=center;verticalAlign=middle;resizable=0;points=[];rotation=270;" connectable="0" vertex="1" parent="1_qBArGU98DS_A4FDtYi-23">
          <mxGeometry x="0.5761" relative="1" as="geometry">
            <mxPoint y="39" as="offset" />
          </mxGeometry>
        </mxCell>
        <mxCell id="1_qBArGU98DS_A4FDtYi-25" value="" style="endArrow=classic;html=1;rounded=0;entryX=0.25;entryY=1;entryDx=0;entryDy=0;exitX=0.7;exitY=0.053;exitDx=0;exitDy=0;exitPerimeter=0;" edge="1" parent="1" source="1_qBArGU98DS_A4FDtYi-4">
          <mxGeometry x="1" y="180" width="50" height="50" relative="1" as="geometry">
            <mxPoint x="460" y="260" as="sourcePoint" />
            <mxPoint x="462" y="120" as="targetPoint" />
            <mxPoint y="-7" as="offset" />
          </mxGeometry>
        </mxCell>
        <mxCell id="1_qBArGU98DS_A4FDtYi-28" value="" style="endArrow=classic;html=1;rounded=0;exitX=0.5;exitY=0;exitDx=0;exitDy=0;entryX=0.5;entryY=1;entryDx=0;entryDy=0;" edge="1" parent="1" source="1_qBArGU98DS_A4FDtYi-4" target="1_qBArGU98DS_A4FDtYi-3">
          <mxGeometry x="1" y="180" width="50" height="50" relative="1" as="geometry">
            <mxPoint x="428" y="275" as="sourcePoint" />
            <mxPoint x="430" y="130" as="targetPoint" />
            <mxPoint y="-7" as="offset" />
          </mxGeometry>
        </mxCell>
        <mxCell id="1_qBArGU98DS_A4FDtYi-29" value="Report Requests" style="edgeLabel;html=1;align=center;verticalAlign=middle;resizable=0;points=[];rotation=270;" connectable="0" vertex="1" parent="1_qBArGU98DS_A4FDtYi-28">
          <mxGeometry x="0.5761" relative="1" as="geometry">
            <mxPoint y="39" as="offset" />
          </mxGeometry>
        </mxCell>
        <mxCell id="1_qBArGU98DS_A4FDtYi-31" value="Room/Menu Management" style="edgeLabel;html=1;align=center;verticalAlign=middle;resizable=0;points=[];rotation=270;fontSize=10;" connectable="0" vertex="1" parent="1_qBArGU98DS_A4FDtYi-28">
          <mxGeometry x="0.5761" relative="1" as="geometry">
            <mxPoint x="20" y="49" as="offset" />
          </mxGeometry>
        </mxCell>
        <mxCell id="1_qBArGU98DS_A4FDtYi-40" value="" style="endArrow=classic;html=1;rounded=0;entryX=-0.033;entryY=0.842;entryDx=0;entryDy=0;entryPerimeter=0;exitX=1;exitY=1;exitDx=0;exitDy=0;" edge="1" parent="1" source="1_qBArGU98DS_A4FDtYi-4" target="1_qBArGU98DS_A4FDtYi-2">
          <mxGeometry width="50" height="50" relative="1" as="geometry">
            <mxPoint x="480" y="345" as="sourcePoint" />
            <mxPoint x="530" y="295" as="targetPoint" />
          </mxGeometry>
        </mxCell>
        <mxCell id="1_qBArGU98DS_A4FDtYi-41" value="&lt;span style=&quot;font-size: 8px;&quot;&gt;Service orders&lt;/span&gt;" style="edgeLabel;html=1;align=center;verticalAlign=middle;resizable=0;points=[];" connectable="0" vertex="1" parent="1_qBArGU98DS_A4FDtYi-40">
          <mxGeometry x="-0.0787" y="1" relative="1" as="geometry">
            <mxPoint as="offset" />
          </mxGeometry>
        </mxCell>
      </root>
    </mxGraphModel>
  </diagram>
</mxfile>
